# xmcd
#
# Track frame offsets: 
#        150
#        17014
#        33960
#        54160
#        73202
#        90787
#        102089
#        119345
#        134686
#        151581
#        165817
#
# Disc length: 2342 seconds
#
# Revision: 0
# Processed by: cddbd v1.5.2PL0 Copyright (c) Steve Scherf et al.
# Submitted via: ExactAudioCopy v0.99pb5
#
DISCID=7709240b
DTITLE=Seldom Scene - A Change of Scenery
DYEAR=1988
DGENRE=Bluegrass
TTITLE0=Breaking New Ground
TTITLE1=Casting My Shadow In The Road
TTITLE2=Settin' Me Up
TTITLE3=Alabama Clay
TTITLE4=I'll Be No Stranger There
TTITLE5=West Texas Wind
TTITLE6=Satan's Choir
TTITLE7=In Despair
TTITLE8=What Goes on
TTITLE9=Brand New Walking Shoes
TTITLE10=One Way Rider
EXTD=
EXTT0=
EXTT1=
EXTT2=
EXTT3=
EXTT4=
EXTT5=
EXTT6=
EXTT7=
EXTT8=
EXTT9=
EXTT10=
PLAYORDER=
